<svg height="497pt" viewBox="0 0 497.576 497" width="497pt" xmlns="http://www.w3.org/2000/svg"><g fill="#f0bc5e"><path d="m248.792969 437.785156c9.925781-14.128906 23.886719-25.210937 40.214843-31.5625l31.785157-301.933594-72-88-72 88 31.78125 301.941407c16.328125 6.34375 30.289062 17.425781 40.21875 31.554687zm0 0"/><path d="m119.136719 421.910156c15.449219-13.429687 35.574219-21.621094 57.65625-21.621094l-24-240-96-72-48 104 104 232zm0 0"/><path d="m384.792969 424.289062 104-232-48-104-96 72-24 240c24.117187 0 45.949219 9.71875 61.847656 25.429688zm0 0"/></g><path d="m393.089844 425.328125 104.484375-233.089844-53.664063-116.285156-106.726562 80.039063-23.671875 236.734374c-5.175781.402344-10.296875 1.066407-15.273438 2.273438l30.867188-293.199219-80.3125-98.144531-80.304688 98.152344 30.871094 293.269531c-4.960937-1.199219-10.0625-2.023437-15.289063-2.421875l-23.664062-236.664062-106.734375-80.039063-53.671875 116.285156 104.496094 233.089844c-13.0625 14.984375-21.558594 34.007813-23.296875 54.960937h-48.40625v16h432v-16h-48.410157c-1.734374-20.953124-10.230468-39.976562-23.292968-54.960937zm7.292968 54.960937h-128c-1.269531-15.328124-6.183593-29.601562-13.832031-42.050781 15.152344-18.78125 37.984375-29.949219 62.242188-29.949219 41.40625 0 75.566406 31.632813 79.589843 72zm78.007813-291.441406-75.152344 40.992188-47.453125-67.792969 81.886719-61.414063zm-127.78125-6.304687 41.496094 59.289062-31.042969 116.390625 15.457031 4.128906 31.113281-116.679687 64.144532-34.992187-90.921875 202.832031c-14.3125-11.519531-31.960938-19.015625-51.269531-20.785157zm-41.203125-79.535157-60.613281 47.144532-60.617188-47.144532 60.617188-74.085937zm-122.695312 19.136719 54.082031 42.054688v116.089843h16v-116.089843l54.078125-42.054688-29.335938 278.742188c-8.984375 4.042969-17.351562 9.34375-24.742187 15.953125v-120.550782h-16v120.648438c-7.335938-6.585938-15.648438-12.074219-24.753907-16.167969zm-18.710938 270.589844c-19.304688 1.769531-36.960938 9.265625-51.273438 20.785156l-90.925781-202.839843 64.144531 34.992187 31.109376 116.679687 15.457031-4.128906-31.039063-116.390625 41.496094-59.289062zm-108.089844-292.109375 81.890625 61.414062-47.457031 67.792969-75.152344-40.984375zm116.882813 307.664062c41.40625 0 75.566406 31.632813 79.589843 72h-159.183593c4.023437-40.367187 38.183593-72 79.59375-72zm0 0"/><path d="m352.792969 440.289062h16v16h-16zm0 0"/><path d="m320.792969 424.289062h16v16h-16zm0 0"/><path d="m16.792969 32.289062h16v16h-16zm0 0"/><path d="m.792969 48.289062h16v16h-16zm0 0"/><path d="m16.792969 64.289062h16v16h-16zm0 0"/><path d="m32.792969 48.289062h16v16h-16zm0 0"/><path d="m176.792969.289062h16v16h-16zm0 0"/><path d="m160.792969 16.289062h16v16h-16zm0 0"/><path d="m176.792969 32.289062h16v16h-16zm0 0"/><path d="m192.792969 16.289062h16v16h-16zm0 0"/><path d="m464.792969 24.289062h16v16h-16zm0 0"/><path d="m448.792969 40.289062h16v16h-16zm0 0"/><path d="m464.792969 56.289062h16v16h-16zm0 0"/><path d="m480.792969 40.289062h16v16h-16zm0 0"/><path d="m480.792969 480.289062h16v16h-16zm0 0"/><path d="m.792969 480.289062h16v16h-16zm0 0"/></svg>