<svg height="496pt" viewBox="-15 0 495 496" width="496pt" xmlns="http://www.w3.org/2000/svg" xmlns:xlink="http://www.w3.org/1999/xlink"><linearGradient id="a" gradientUnits="userSpaceOnUse" x1="232.5" x2="232.5" y1="496" y2="0"><stop offset="0" stop-color="#9f2fff"/><stop offset="1" stop-color="#0bb1d3"/></linearGradient><path d="m32.5 24v40h-16v32h-16v304h16v32h16v40c0 13.230469 10.769531 24 24 24s24-10.769531 24-24v-40h16v-32h16v-16h320c17.648438 0 32-14.351562 32-32v-256c0-17.648438-14.351562-32-32-32h-80v48h-240v-16h-16v-32h-16v-40c0-13.230469-10.769531-24-24-24s-24 10.769531-24 24zm24 456c-4.40625 0-8-3.585938-8-8v-8h16v8c0 4.414062-3.59375 8-8 8zm8-32h-16v-16h16zm16-32h-48v-16h48zm16-32h-80v-272h80zm272-304h64c8.824219 0 16 7.175781 16 16v228.296875c-4.710938-2.738281-10.175781-4.296875-16-4.296875h-64zm-16 48v208h80c8.824219 0 16 7.175781 16 16s-7.175781 16-16 16h-320v-240zm-320-32v-16h48v16zm16-32v-16h16v16zm16-40v8h-16v-8c0-4.40625 3.59375-8 8-8s8 3.59375 8 8zm144 120h-80v80h80zm-16 64h-48v-48h48zm112-48h-80v-16h80zm32 0h-16v-16h16zm-32 32h-80v-16h80zm32 0h-16v-16h16zm-32 32h-80v-16h80zm32 0h-16v-16h16zm-176 48h80v16h-80zm-16 16h-16v-16h16zm16 16h80v16h-80zm-16 16h-16v-16h16zm16 16h80v16h-80zm-32 16v-16h16v16zm168-80c-22.054688 0-40 17.945312-40 40s17.945312 40 40 40 40-17.945312 40-40-17.945312-40-40-40zm0 64c-13.230469 0-24-10.769531-24-24s10.769531-24 24-24 24 10.769531 24 24-10.769531 24-24 24zm0 0" fill="url(#a)"/></svg>