<svg height="496pt" viewBox="-48 0 496 496" width="496pt" xmlns="http://www.w3.org/2000/svg" xmlns:xlink="http://www.w3.org/1999/xlink"><linearGradient id="a" gradientUnits="userSpaceOnUse" x1="200" x2="200" y1="496" y2="0"><stop offset="0" stop-color="#9f2fff"/><stop offset="1" stop-color="#0bb1d3"/></linearGradient><path d="m0 178.648438c0 86.917968 36.023438 171.230468 98.832031 231.320312l81.855469 78.289062c5.234375 4.988282 12.089844 7.742188 19.3125 7.742188s14.078125-2.753906 19.3125-7.753906l81.847656-78.285156c62.816406-60.089844 98.839844-144.402344 98.839844-231.3125 0-34.472657-5.527344-68.527344-16.425781-101.222657l-25.804688-77.425781h-77.769531v32c0 8.824219-7.175781 16-16 16s-16-7.175781-16-16v-32h-96v32c0 8.824219-7.175781 16-16 16s-16-7.175781-16-16v-32h-77.769531l-25.804688 77.425781c-10.898437 32.695313-16.425781 66.75-16.425781 101.222657zm53.769531-162.648438h50.230469v16c0 17.648438 14.351562 32 32 32s32-14.351562 32-32v-16h64v16c0 17.648438 14.351562 32 32 32s32-14.351562 32-32v-16h50.230469l22.160156 66.488281c10.363281 31.054688 15.609375 63.40625 15.609375 96.160157 0 82.574218-34.222656 162.664062-93.894531 219.75l-81.847657 78.289062c-4.480468 4.265625-12.035156 4.265625-16.503906 0l-81.859375-78.289062c-59.671875-57.085938-93.894531-137.183594-93.894531-219.75 0-32.746094 5.246094-65.105469 15.609375-96.160157zm146.230469 424.296875 67.984375-65.023437c53.390625-51.082032 84.015625-122.746094 84.015625-196.625 0-25.59375-3.808594-51.464844-11.320312-76.914063l-1.6875-5.734375h-277.984376l-1.6875 5.734375c-7.511718 25.449219-11.320312 51.320313-11.320312 76.914063 0 73.878906 30.625 145.542968 84.015625 196.625zm-126.960938-328.296875h253.921876c6 22.121094 9.039062 44.503906 9.039062 66.648438 0 69.535156-28.824219 136.992187-79.078125 185.0625l-56.921875 54.449218-56.921875-54.449218c-50.253906-48.070313-79.078125-115.527344-79.078125-185.0625 0-22.144532 3.039062-44.527344 9.039062-66.648438zm262.960938-56h-16v-16h16zm-256 0h-16v-16h16zm218.472656 129.824219-55.9375 27.96875-42.535156-59.5625-42.535156 59.554687-55.9375-27.96875 19.695312 118.183594h157.554688zm-163.695312 102.175781-2.664063-16h91.886719v-16h-94.558594l-6.96875-41.824219 40.0625 20.03125 37.464844-52.4375 37.464844 52.445313 40.0625-20.03125-6.96875 41.816406h-30.558594v16h27.886719l-2.664063 16zm57.222656-72h16v16h-16zm8-136c13.230469 0 24-10.769531 24-24s-10.769531-24-24-24-24 10.769531-24 24 10.769531 24 24 24zm0-32c4.40625 0 8 3.59375 8 8s-3.59375 8-8 8-8-3.59375-8-8 3.59375-8 8-8zm0 0" fill="url(#a)"/></svg>