<svg height="496pt" viewBox="-24 0 496 496" width="496pt" xmlns="http://www.w3.org/2000/svg"><g fill="#f0bc5e"><path d="m344 129.535156v-6.625c0-17.796875 3.199219-35.445312 9.449219-52.109375l14.550781-38.800781-10.664062-8h10.664062l13.144531 2.078125c25.167969 4.195313 47.007813 20.320313 58.414063 43.144531 5.519531 11.050782 8.441406 23.417969 8.441406 35.777344v38.359375l-104 8.640625h-1.902344c1.140625-7.425781 1.902344-14.910156 1.902344-22.464844zm0 0"/><path d="m200 40h16v80h-16zm0 0"/><path d="m232 40h16v80h-16zm0 0"/><path d="m104 129.535156v-6.625c0-17.796875-3.199219-35.445312-9.449219-52.109375l-14.550781-38.800781 10.664062-8h-10.664062l-13.144531 2.078125c-25.167969 4.195313-47.007813 20.320313-58.40625 43.136719-5.527344 11.058594-8.449219 23.425781-8.449219 35.785156v38.359375l104 8.640625h1.902344c-1.140625-7.425781-1.902344-14.910156-1.902344-22.464844zm0 0"/></g><path d="m440.664062 111.976562-1.328124-15.945312-85.808594 7.152344c1.425781-10.0625 3.816406-19.96875 7.417968-29.566406l16.65625-44.417969-28.265624-21.199219c-6.878907-5.160156-15.398438-8-24-8h-35.289063l-6.207031 20.679688c-1.144532 3.816406-2.441406 7.566406-3.761719 11.320312h-112.15625c-1.320313-3.753906-2.617187-7.511719-3.761719-11.320312l-6.207031-20.679688h-35.289063c-8.601562 0-17.121093 2.839844-24 8l-28.257812 21.191406 16.65625 44.417969c3.601562 9.597656 5.992188 19.503906 7.417969 29.566406l-85.816407-7.152343-1.328124 15.945312 88.503906 7.375c.03125 1.191406.160156 2.367188.160156 3.566406v6.625c0 21.3125 4.257812 42.039063 12.648438 61.617188 7.527343 17.574218 11.351562 36.183594 11.351562 55.3125v57.535156c-8.824219 0-16 7.175781-16 16v16c0 8.625 6.863281 15.625 15.414062 15.945312-1.261718 11.261719-5.0625 22.101563-11.511718 31.773438-2.550782 3.839844-3.902344 8.304688-3.902344 12.90625 0 10.367188 6.671875 19.328125 16.59375 22.304688l13.316406 4c32.3125 9.695312 57.128906 34.832031 66.394532 67.261718l1.664062 5.808594h44.070312l1.65625-5.808594c9.265626-32.429687 34.089844-57.566406 66.394532-67.261718l13.316406-4c9.921875-2.976563 16.59375-11.9375 16.59375-22.304688 0-4.601562-1.351562-9.066406-4.03125-13.097656-6.34375-9.519532-10.128906-20.335938-11.382812-31.589844 8.550781-.3125 15.414062-7.3125 15.414062-15.9375v-16c0-8.824219-7.175781-16-16-16v-57.535156c0-19.128906 3.824219-37.738282 11.351562-55.3125 8.390626-19.578125 12.648438-40.3125 12.648438-61.617188v-6.625c0-1.191406.128906-2.375.160156-3.566406zm-166.753906-63.976562c-12.015625 28.152344-28.925781 54.160156-49.910156 76.503906-20.984375-22.34375-37.894531-48.34375-49.910156-76.503906zm-171.871094 19.992188-12.445312-33.183594 18.664062-14c4.132813-3.105469 9.246094-4.808594 14.40625-4.808594h23.375l2.785157 9.28125c4.894531 16.320312 11.3125 32.144531 19.097656 47.246094l-3.25 39.007812c-2.167969 26.039063-23.519531 46.625-49.296875 48.304688-2.183594-9.902344-3.375-20.023438-3.375-30.304688v-6.625c0-18.820312-3.351562-37.300781-9.960938-54.917968zm222.609376 116.855468c-8.390626 19.578125-12.648438 40.3125-12.648438 61.617188v57.535156h-48v16h64v16h-64v16h48.40625c1.320312 14.425781 6.167969 28.289062 14.363281 40.574219.804688 1.21875 1.230469 2.609375 1.230469 4.050781 0 3.238281-2.089844 6.046875-5.191406 6.976562l-13.320313 4c-35.601562 10.6875-63.382812 37.511719-75.351562 72.398438h-20.257813c-11.96875-34.878906-39.75-61.710938-75.351562-72.398438l-13.328125-4c-3.109375-.929687-5.199219-3.738281-5.199219-6.976562 0-1.441406.425781-2.832031 1.34375-4.21875 8.105469-12.148438 12.929688-25.980469 14.25-40.40625h48.40625v-16h-64v-16h64v-16h-48v-57.535156c0-21.3125-4.257812-42.039063-12.648438-61.617188-1.320312-3.070312-2.375-6.222656-3.464843-9.359375 32-3.746093 58.007812-29.878906 60.738281-62.632812l1.359375-16.335938c10.527344 16.222657 22.648437 31.425781 36.359375 45.136719l5.65625 5.65625 5.65625-5.65625c13.710938-13.710938 25.832031-28.914062 36.359375-45.136719l1.359375 16.335938c2.730469 32.753906 28.738281 58.886719 60.738281 62.632812-1.089843 3.136719-2.144531 6.28125-3.464843 9.359375zm11.351562-61.9375v6.625c0 10.28125-1.191406 20.402344-3.382812 30.304688-25.777344-1.679688-47.121094-22.265625-49.296876-48.304688l-3.25-39.007812c7.785157-15.101563 14.203126-30.925782 19.097657-47.238282l2.785156-9.289062h23.375c5.160156 0 10.28125 1.703125 14.398437 4.800781l18.671876 14.007813-12.445313 33.183594c-6.601563 17.617187-9.953125 36.097656-9.953125 54.917968zm0 0"/><path d="m232 184v-8h-16v8c0 13.230469-10.769531 24-24 24h-24v16h24c13.128906 0 24.703125-6.449219 32-16.246094 7.296875 9.796875 18.871094 16.246094 32 16.246094h24v-16h-24c-13.230469 0-24-10.769531-24-24zm0 0"/><path d="m232 240v-8h-16v8c0 13.230469-10.769531 24-24 24h-24v16h24c13.128906 0 24.703125-6.449219 32-16.246094 7.296875 9.796875 18.871094 16.246094 32 16.246094h24v-16h-24c-13.230469 0-24-10.769531-24-24zm0 0"/><path d="m256 360h-64c-8.824219 0-16-7.175781-16-16v-32c0-8.824219 7.175781-16 16-16h64c8.824219 0 16 7.175781 16 16v32c0 8.824219-7.175781 16-16 16zm-64-48v32h64.015625l-.015625-32zm0 0" fill="#f0bc5e"/></svg>