<svg height="496pt" viewBox="-15 0 495 496" width="496pt" xmlns="http://www.w3.org/2000/svg"><path d="m328.5 360h-224v-312h224zm0 0" fill="#f0bc5e"/><path d="m302.628906 128h-57.601562l-28.527344-47.542969-28.527344 47.542969h-57.601562l28.800781 48-28.800781 48h57.601562l28.527344 47.542969 28.527344-47.542969h57.601562l-28.800781-48zm-28.257812 16-9.871094 16.457031-9.871094-16.457031zm-19.199219 32-19.199219 32h-38.945312l-19.199219-32 19.199219-32h38.945312zm-38.671875-64.457031 9.871094 16.457031h-19.742188zm-57.871094 32.457031h19.742188l-9.871094 16.457031zm0 64 9.871094-16.457031 9.871094 16.457031zm57.871094 32.457031-9.871094-16.457031h19.742188zm57.871094-32.457031h-19.742188l9.871094-16.457031zm0 0"/><path d="m208.5 296h16v16h-16zm0 0"/><path d="m248.5 296h16v16h-16zm0 0"/><path d="m168.5 296h16v16h-16zm0 0"/><path d="m443.8125 80 15.023438-15.023438c3.601562-3.59375 5.664062-8.570312 5.664062-13.664062 0-10.648438-8.664062-19.3125-19.3125-19.3125h-52.6875v-32h-344c-26.472656 0-48 21.527344-48 48v400c0 26.472656 21.527344 48 48 48h344v-15.34375l-6.40625-1.296875c-14.832031-3.015625-25.59375-16.199219-25.59375-31.359375s10.761719-28.34375 25.59375-31.359375l6.40625-1.296875v-287.34375h52.6875c10.648438 0 19.3125-8.664062 19.3125-19.3125 0-5.09375-2.0625-10.070312-5.65625-13.65625zm-403.3125-62.863281v23.582031c-9.136719 1.546875-17.382812 5.664062-24 11.601562v-4.320312c0-14.871094 10.238281-27.289062 24-30.863281zm0 40v23.582031c-9.136719 1.546875-17.382812 5.664062-24 11.601562v-4.320312c0-14.871094 10.238281-27.289062 24-30.863281zm0 40v23.582031c-9.136719 1.546875-17.382812 5.664062-24 11.601562v-4.320312c0-14.871094 10.238281-27.289062 24-30.863281zm0 40v23.582031c-9.136719 1.546875-17.382812 5.664062-24 11.601562v-4.320312c0-14.871094 10.238281-27.289062 24-30.863281zm0 40v23.582031c-9.136719 1.546875-17.382812 5.664062-24 11.601562v-4.320312c0-14.871094 10.238281-27.289062 24-30.863281zm0 40v23.582031c-9.136719 1.546875-17.382812 5.664062-24 11.601562v-4.320312c0-14.871094 10.238281-27.289062 24-30.863281zm0 40v23.582031c-9.136719 1.546875-17.382812 5.664062-24 11.601562v-4.320312c0-14.871094 10.238281-27.289062 24-30.863281zm0 40v23.582031c-9.136719 1.546875-17.382812 5.664062-24 11.601562v-4.320312c0-14.871094 10.238281-27.289062 24-30.863281zm0 40v23.582031c-9.136719 1.546875-17.382812 5.664062-24 11.601562v-4.320312c0-14.871094 10.238281-27.289062 24-30.863281zm0 40v23.582031c-9.136719 1.546875-17.382812 5.664062-24 11.601562v-4.320312c0-14.871094 10.238281-27.289062 24-30.863281zm304.753906 62.863281h-280.753906v16h280.753906c1.542969 9.039062 5.566406 17.34375 11.519532 24h-308.273438c-17.648438 0-32-14.351562-32-32s14.351562-32 32-32h308.273438c-5.953126 6.65625-9.976563 14.960938-11.519532 24zm-288.753906-40v-384h320v384zm388.6875-288h-52.6875v-64h52.6875c1.824219 0 3.3125 1.488281 3.3125 3.3125 0 .871094-.351562 1.726562-.96875 2.34375l-26.34375 26.34375 26.34375 26.351562c.617188.609376.96875 1.464844.96875 2.335938 0 1.824219-1.488281 3.3125-3.3125 3.3125zm0 0"/><path d="m32.5 440h16v16h-16zm0 0"/></svg>