<svg height="497pt" viewBox="0 0 497 497.616" width="497pt" xmlns="http://www.w3.org/2000/svg" xmlns:xlink="http://www.w3.org/1999/xlink"><linearGradient id="a" gradientUnits="userSpaceOnUse" x1="248.308" x2="248.308" y1="497.616" y2=".0024"><stop offset="0" stop-color="#9f2fff"/><stop offset="1" stop-color="#0bb1d3"/></linearGradient><path d="m240.308594 321.617188h16v16h-16zm96 16h16v-16h-16zm-192 0h16v-16h-16zm128 144h192v16h-432v-16h192v-120l-6.402344-4.800782c-6.015625-4.511718-9.597656-11.6875-9.597656-19.199218v-32c0-4.410157-3.59375-8-8-8-4.410156 0-8 3.589843-8 8v32c0 7.511718-3.585938 14.6875-9.59375 19.199218l-30.40625 22.800782-30.402344-22.800782c-6.015625-4.511718-9.597656-11.6875-9.597656-19.199218v-240c0-13.234376 10.765625-24 24-24h88v-22.707032l-9.519532-28.558594 33.519532-22.351562 33.519531 22.34375-9.519531 28.566406v22.707032h88c13.230468 0 24 10.765624 24 24v240c0 7.511718-3.585938 14.6875-9.59375 19.199218l-30.40625 22.800782-30.402344-22.800782c-6.015625-4.511718-9.597656-11.6875-9.597656-19.199218v-32c0-4.410157-3.59375-8-8-8-4.410156 0-8 3.589843-8 8v32c0 7.511718-3.585938 14.6875-9.59375 19.199218l-6.40625 4.800782zm-38.480469-452.738282 4.246094 12.738282h20.472656l4.242187-12.738282-14.480468-9.648437zm6.480469 44.738282h16v-16h-16zm-112 24v8h240v-8c0-4.410157-3.59375-8-8-8h-224c-4.410156 0-8 3.589843-8 8zm96 208v32c0 2.503906 1.191406 4.894531 3.199218 6.398437l20.800782 15.601563 20.800781-15.601563c2-1.503906 3.199219-3.894531 3.199219-6.398437v-32c0-13.234376 10.765625-24 24-24 13.230468 0 24 10.765624 24 24v32c0 2.503906 1.191406 4.894531 3.199218 6.398437l20.800782 15.601563 20.800781-15.601563c2-1.503906 3.199219-3.894531 3.199219-6.398437v-216h-240v216c0 2.503906 1.191406 4.894531 3.199218 6.398437l20.800782 15.601563 20.800781-15.601563c2-1.503906 3.199219-3.894531 3.199219-6.398437v-32c0-13.234376 10.765625-24 24-24 13.230468 0 24 10.765624 24 24zm16 176h16v-108l-8 6-8-6zm240 16h16v-16h-16zm-480 0h16v-16h-16zm201.4375-264-11.988282-59.953126 32.382813 10.800782 26.160156-26.160156 26.160157 26.160156 32.382812-10.800782-11.976562 59.953126zm9.105468-36.050782 4.015626 20.050782h66.878906l4.011718-20.050782-15.617187 5.203125-21.832031-21.839843-21.839844 21.839843zm125.457032 68.050782h-176v-128h176zm-16-112h-144v96h144zm0 0" fill="url(#a)"/></svg>