<svg height="489pt" viewBox="-80 0 489 489.44" width="489pt" xmlns="http://www.w3.org/2000/svg" xmlns:xlink="http://www.w3.org/1999/xlink"><linearGradient id="a" gradientUnits="userSpaceOnUse" x1="165.124" x2="165.124" y1="489.4416" y2="0"><stop offset="0" stop-color="#9f2fff"/><stop offset="1" stop-color="#0bb1d3"/></linearGradient><path d="m173.125 188.496094v16h-16v-16zm-127.808594-20.648438c2.375-6.351562 5.175782-12.480468 8.488282-18.304687l-.609376.089843-9.832031-68.816406 59.617188 19.871094c8.640625-4.824219 17.902343-8.597656 27.625-11.328125l-14.976563-29.960937 49.496094-59.398438 49.496094 59.390625-14.976563 29.960937c9.710938 2.726563 18.984375 6.503907 27.625 11.328126l59.613281-19.871094-9.832031 68.816406-.605469-.089844c3.3125 5.832032 6.109376 11.960938 8.488282 18.304688l45.09375 27.054687-36.757813 36.761719c.328125 41.414062 1.644531 83.105469 4.070313 124.230469l4.273437 72.609375h-40.488281v28.945312l-64 32v-60.945312h-64v60.945312l-64-32v-28.945312h-40.488281l4.269531-72.59375c2.425781-41.132813 3.746094-82.824219 4.074219-124.230469l-36.761719-36.761719zm-19.296875 30.242188 11.265625 11.253906c.160156-6.519531.816406-12.917969 1.917969-19.167969zm43.105469 214.40625v-96c0-10.929688-7.386719-20.0625-17.394531-22.960938-.695313 21.167969-1.613281 42.3125-2.855469 63.304688l-3.261719 55.65625zm64.949219-86.824219 6.335937-41.175781h-45.054687l-21.335938-64h60.785157l-51.703126-84.015625c-18.539062 19.992187-29.976562 46.664062-29.976562 76.015625 0 21.496094-.328125 43.113281-.898438 64.71875 18.664063 3.371094 32.898438 19.65625 32.898438 39.28125v131.054687l32 16v-115.054687c0-10.769532 7.175781-19.792969 16.949219-22.824219zm53.96875-273.175781-14.917969-17.902344v17.902344zm-14.917969 16v16h11.054688l8-16zm-16-33.902344-14.921875 17.902344h14.921875zm-19.058594 33.902344 8 16h11.058594v-16zm35.058594 32.40625v51.753906l30.34375 24.273438 31.773438-51.632813c-17.253907-13.90625-38.703126-22.730469-62.117188-24.394531zm-6.863281 135.59375h-2.273438l-14.335937 93.207031 15.472656 15.480469 15.480469-15.480469zm-18.464844 0h-51.578125l10.664062 32h35.984376zm39.574219 32h35.984375l10.664062-32h-51.574219zm-10.71875-48 18.359375-29.839844-29.886719-23.914062-29.898438 23.914062 18.371094 29.839844zm-19.527344-119.59375c-23.417969 1.664062-44.863281 10.488281-62.121094 24.394531l31.777344 51.632813 30.34375-24.28125zm40 311.59375v-64c0-3.433594-2.199219-6.3125-5.25-7.441406l-26.75 26.753906-26.753906-26.753906c-3.046875 1.128906-5.246094 4.007812-5.246094 7.441406v64zm48-96c0-19.625 14.230469-35.910156 32.902344-39.28125-.574219-21.605469-.902344-43.222656-.902344-64.71875 0-29.351563-11.441406-56.023438-29.984375-76.015625l-51.703125 84.015625h60.78125l-21.335938 64h-45.054687l6.335937 41.175781c9.785157 3.03125 16.960938 12.054687 16.960938 22.824219v115.054687l32-16zm39.511719 96-3.273438-55.65625c-1.230469-20.984375-2.152343-42.128906-2.855469-63.304688-10 2.898438-17.382812 12.03125-17.382812 22.960938v96zm6.40625-222.320313c1.105469 6.25 1.761719 12.640625 1.921875 19.167969l11.261718-11.253906zm-46.976563-78.230469c7.128906 5.605469 13.707032 11.886719 19.496094 18.855469l3.808594-26.625zm-177.390625 18.863282c5.792969-6.976563 12.367188-13.25 19.496094-18.855469l-23.304687-7.769531zm0 0" fill="url(#a)"/></svg>