<svg height="496pt" viewBox="0 0 496 496.544" width="496pt" xmlns="http://www.w3.org/2000/svg"><path d="m379.847656 256.839844c-17.007812-8.503906-27.574218-25.601563-27.574218-44.617188v-20.222656h-75.433594l11.433594 168-40 48-40-48 11.429687-168h-75.429687v20.222656c0 19.015625-10.570313 36.113282-27.578126 44.617188l-4.421874 2.214844v44.242187c0 85.078125 53.519531 162.3125 133.183593 192.191406l2.816407 1.054688 2.816406-1.054688c79.664062-29.878906 133.183594-107.113281 133.183594-192.191406v-44.242187zm0 0" fill="#f0bc5e"/><path d="m322.246094 230.265625-1.398438-6.265625h-34.273437l-5.710938-80h15.410157v16h16v-16h16v-8c0-12.457031-4.847657-24.167969-13.65625-32.96875l-7.03125-7.03125h-35.3125v-48c13.230468 0 24-10.769531 24-24s-10.769532-24-24-24h-48c-13.234376 0-24 10.769531-24 24s10.765624 24 24 24v48h-35.3125l-7.03125 7.03125c-8.808594 8.800781-13.65625 20.511719-13.65625 32.96875v8h16v16h16v-16h15.40625l-5.710938 80h-34.273438l-1.390624 6.265625c-3.921876 17.621094-13.320313 33.054687-27.160157 44.65625l-2.871093 2.390625v25.984375c0 67.261719 39.503906 129.007813 100.636718 157.296875l3.363282 1.558594 3.359374-1.550782c61.136719-28.296874 100.640626-90.042968 100.640626-157.304687v-25.984375l-2.867188-2.402344c-13.847656-11.589844-23.238281-27.03125-27.160156-44.644531zm-105.972656-206.265625c0-4.40625 3.589843-8 8-8h48c4.40625 0 8 3.59375 8 8s-3.59375 8-8 8h-48c-4.410157 0-8-3.59375-8-8zm40 24v16h-16v-16zm-16 32h16v16h-16zm-47.035157 34.34375 2.347657-2.34375h105.375l2.34375 2.34375c3.847656 3.847656 6.542968 8.535156 7.917968 13.65625h-125.902344c1.375-5.121094 4.070313-9.808594 7.917969-13.65625zm47.035157 29.65625v80h16v-80h8.550781l15.238281 213.351562-23.789062 28.542969v-145.894531h-16v145.894531l-23.792969-28.542969 15.238281-213.351562zm96 159.296875c0 59.816406-34.417969 114.816406-88 141.167969-53.585938-26.359375-88-81.359375-88-141.167969v-18.609375c13.40625-12.121094 23-27.40625 28.03125-44.6875h20.511718l-8.761718 122.648438 48.21875 57.847656 48.207031-57.847656-8.761719-122.648438h20.511719c5.042969 17.28125 14.625 32.566406 28.035156 44.6875v18.609375zm0 0"/><path d="m392.273438 88h-16c0 13.230469-10.769532 24-24 24v16c13.230468 0 24 10.769531 24 24h16c0-13.230469 10.765624-24 24-24v-16c-13.234376 0-24-10.769531-24-24zm-8 40.246094c-2.335938-3.140625-5.105469-5.910156-8.25-8.246094 3.144531-2.335938 5.914062-5.105469 8.25-8.246094 2.335937 3.140625 5.101562 5.910156 8.246093 8.246094-3.144531 2.335938-5.910156 5.105469-8.246093 8.246094zm0 0"/><path d="m144.273438 72c-13.234376 0-24-10.769531-24-24h-16c0 13.230469-10.769532 24-24 24v16c13.230468 0 24 10.769531 24 24h16c0-13.230469 10.765624-24 24-24zm-32 16.246094c-2.335938-3.140625-5.105469-5.910156-8.25-8.246094 3.144531-2.335938 5.914062-5.105469 8.25-8.246094 2.335937 3.140625 5.101562 5.910156 8.246093 8.246094-3.144531 2.335938-5.910156 5.105469-8.246093 8.246094zm0 0"/><path d="m464.273438 120h16v16h-16zm0 0"/><path d="m464.273438 152h16v16h-16zm0 0"/><path d="m480.273438 136h16v16h-16zm0 0"/><path d="m448.273438 136h16v16h-16zm0 0"/><path d="m16.273438 128h16v16h-16zm0 0"/><path d="m16.273438 160h16v16h-16zm0 0"/><path d="m32.273438 144h16v16h-16zm0 0"/><path d="m.273438 144h16v16h-16zm0 0"/><path d="m48.273438 0h16v16h-16zm0 0"/><path d="m48.273438 32h16v16h-16zm0 0"/><path d="m64.273438 16h16v16h-16zm0 0"/><path d="m32.273438 16h16v16h-16zm0 0"/><path d="m392.273438 0h16v16h-16zm0 0"/><path d="m392.273438 32h16v16h-16zm0 0"/><path d="m408.273438 16h16v16h-16zm0 0"/><path d="m376.273438 16h16v16h-16zm0 0"/></svg>