<svg height="496pt" viewBox="0 0 496 496" width="496pt" xmlns="http://www.w3.org/2000/svg"><g fill="#f0bc5e"><path d="m248 224c-52.9375 0-96 43.0625-96 96v72.808594c2.585938-.527344 5.257812-.808594 8-.808594 20.007812 0 36.441406 14.734375 39.382812 33.921875l.617188-1.921875h9.375c14.488281 0 28.386719 5.753906 38.625 16 10.246094-10.246094 24.136719-16 38.625-16h9.375l.617188 1.921875c2.941406-19.1875 19.375-33.921875 39.382812-33.921875 2.742188 0 5.414062.28125 8 .808594v-72.808594c0-52.9375-43.0625-96-96-96zm0 0"/><path d="m42.339844 122.34375 47.996094-47.996094 11.316406 11.3125-48 48zm0 0"/><path d="m90.339844 122.34375 47.996094-47.996094 11.316406 11.3125-48 48zm0 0"/><path d="m138.339844 122.347656 47.996094-48 11.316406 11.3125-48 48zm0 0"/></g><path d="m416 424h-32.71875c-3.824219-22.664062-23.539062-40-47.28125-40-20.855469 0-38.59375 13.382812-45.199219 32h-4.175781c-14.183594 0-27.648438 4.679688-38.625 13.320312-10.976562-8.640624-24.441406-13.320312-38.625-13.320312h-4.175781c-6.605469-18.617188-24.34375-32-45.199219-32-23.734375 0-43.449219 17.335938-47.28125 40h-32.71875c-10.414062 0-19.214844 6.710938-22.527344 16h-25.472656v16h25.472656c3.3125 9.289062 12.113282 16 22.527344 16h48.953125l19.199219 24h23.6875l19.199218-24h113.914063l19.199219 24h23.6875l19.199218-24h48.960938c10.414062 0 19.214844-6.710938 22.527344-16h25.472656v-16h-25.472656c-3.3125-9.289062-12.113282-16-22.527344-16zm-112 8c0-17.648438 14.351562-32 32-32s32 14.351562 32 32v1.96875c0 2.03125-.246094 4.046875-.632812 6.03125h-62.742188c-.378906-1.984375-.625-4-.625-6.03125zm-176 0c0-17.648438 14.351562-32 32-32s32 14.351562 32 32v1.96875c0 2.03125-.246094 4.046875-.632812 6.03125h-62.742188c-.378906-1.984375-.625-4-.625-6.03125zm-56 16c0-4.40625 3.585938-8 8-8h32.511719c.710937 5.59375 2.367187 11 4.953125 16h-37.464844c-4.414062 0-8-3.59375-8-8zm64.648438 8h15.351562v19.191406zm31.351562 19.191406v-19.191406h15.351562zm34.535156-19.191406c3.503906-6.792969 5.464844-14.335938 5.464844-22.03125v-1.96875h1.375c12.457031 0 24.167969 4.847656 32.96875 13.65625l5.65625 5.664062 5.65625-5.664062c8.808594-8.808594 20.511719-13.65625 32.96875-13.65625h1.375v1.96875c0 7.6875 1.960938 15.238281 5.464844 22.03125zm110.113282 0h15.351562v19.191406zm31.351562 19.191406v-19.191406h15.351562zm72-19.191406h-37.464844c2.585938-5 4.242188-10.40625 4.953125-16h32.511719c4.414062 0 8 3.59375 8 8s-3.585938 8-8 8zm0 0"/><path d="m272 408v-9.136719c13.769531-3.574219 24-16 24-30.863281 0-15.015625-10.425781-27.550781-24.398438-30.984375-1.847656-9.679687-10.34375-17.015625-20.546874-17.015625h-6.109376c-10.203124 0-18.699218 7.335938-20.546874 17.015625-13.972657 3.433594-24.398438 15.96875-24.398438 30.984375 0 14.863281 10.230469 27.289062 24 30.863281v9.136719h16v-9.054688c2.792969-.738281 5.488281-1.832031 8-3.304687 2.511719 1.472656 5.207031 2.566406 8 3.304687v9.054688zm-27.054688-72h6.109376c2.730468 0 4.945312 2.214844 4.945312 4.945312 0 .757813-.175781 1.527344-.519531 2.207032l-3.054688 6.105468c-1.691406 3.382813-7.160156 3.375-8.839843 0l-3.058594-6.113281c-.351563-.671875-.527344-1.441406-.527344-2.199219 0-2.730468 2.214844-4.945312 4.945312-4.945312zm3.054688 39.007812-5.351562 4.824219c-2.992188 2.6875-6.769532 4.167969-10.648438 4.167969-8.824219 0-16-7.175781-16-16 0-7.222656 4.839844-13.273438 11.425781-15.257812l1.839844 3.683593c3.574219 7.132813 10.75 11.574219 18.734375 11.574219s15.160156-4.441406 18.734375-11.574219l1.839844-3.671875c6.585937 1.972656 11.425781 8.023438 11.425781 15.246094 0 8.824219-7.175781 16-16 16-3.878906 0-7.65625-1.480469-10.648438-4.167969zm0 0"/><path d="m205.65625 309.65625 6.34375-6.34375 6.34375 6.34375 11.3125-11.3125-6.34375-6.34375 6.34375-6.34375-11.3125-11.3125-6.34375 6.34375-6.34375-6.34375-11.3125 11.3125 6.34375 6.34375-6.34375 6.34375zm0 0"/><path d="m290.34375 274.34375-6.34375 6.34375-6.34375-6.34375-11.3125 11.3125 6.34375 6.34375-6.34375 6.34375 11.3125 11.3125 6.34375-6.34375 6.34375 6.34375 11.3125-11.3125-6.34375-6.34375 6.34375-6.34375zm0 0"/><path d="m248 128c13.230469 0 24-10.769531 24-24s-10.769531-24-24-24-24 10.769531-24 24 10.769531 24 24 24zm0-32c4.414062 0 8 3.59375 8 8s-3.585938 8-8 8-8-3.59375-8-8 3.585938-8 8-8zm0 0"/><path d="m16 152h16c8.824219 0 16-7.175781 16-16h144v24c-8.824219 0-16 7.175781-16 16v16c0 8.824219 7.175781 16 16 16h112c8.824219 0 16-7.175781 16-16v-16c0-8.824219-7.175781-16-16-16v-112c8.824219 0 16-7.175781 16-16v-16c0-8.824219-7.175781-16-16-16h-112c-8.824219 0-16 7.175781-16 16v16c0 8.824219 7.175781 16 16 16v24h-144c0-8.824219-7.175781-16-16-16h-16c-8.824219 0-16 7.175781-16 16v64c0 8.824219 7.175781 16 16 16zm288.007812 40h-112.007812v-16h112zm-112.007812-176h112l.007812 16h-112.007812zm96 32v112h-80v-112zm-96 40v32h-144v-32zm-176-16h16l.007812 64h-16.007812zm0 0"/><path d="m424 112h16v-16h16v-16h-16v-16h-16v16h-16v16h16zm0 0"/><path d="m32 328v-16h16v-16h-16v-16h-16v16h-16v16h16v16zm0 0"/><path d="m480 336v-16h-16v16h-16v16h16v16h16v-16h16v-16zm0 0"/><path d="m112 256v-8c0-13.230469 10.769531-24 24-24h8v-16h-8c-13.230469 0-24-10.769531-24-24v-8h-16v8c0 13.230469-10.769531 24-24 24h-8v16h8c13.230469 0 24 10.769531 24 24v8zm-16.246094-40c3.140625-2.335938 5.910156-5.105469 8.246094-8.246094 2.335938 3.140625 5.105469 5.910156 8.246094 8.246094-3.140625 2.335938-5.910156 5.105469-8.246094 8.246094-2.335938-3.140625-5.105469-5.910156-8.246094-8.246094zm0 0"/><path d="m392 280v8h16v-8c0-13.230469 10.769531-24 24-24h8v-16h-8c-13.230469 0-24-10.769531-24-24v-8h-16v8c0 13.230469-10.769531 24-24 24h-8v16h8c13.230469 0 24 10.769531 24 24zm8-40.246094c2.335938 3.140625 5.105469 5.910156 8.246094 8.246094-3.140625 2.335938-5.910156 5.105469-8.246094 8.246094-2.335938-3.140625-5.105469-5.910156-8.246094-8.246094 3.140625-2.335938 5.910156-5.105469 8.246094-8.246094zm0 0"/><path d="m480 440h16v16h-16zm0 0"/><path d="m0 440h16v16h-16zm0 0"/></svg>