<svg height="496pt" viewBox="0 0 496 496" width="496pt" xmlns="http://www.w3.org/2000/svg" xmlns:xlink="http://www.w3.org/1999/xlink"><linearGradient id="a" gradientUnits="userSpaceOnUse" x1="248" x2="248" y1="496" y2="0"><stop offset="0" stop-color="#9f2fff"/><stop offset="1" stop-color="#0bb1d3"/></linearGradient><path d="m456 396.6875-8 8-44.6875-44.6875 16-16-24-24 45.671875-45.671875-21.023437-73.601563-67.785157 67.785157-252.71875-268.511719h-99.457031v99.457031l268.511719 252.71875-67.785157 67.785157 73.601563 21.023437 45.671875-45.671875 24 24 16-16 44.6875 44.6875-8 8 27.71875 27.726562c7.929688 7.914063 18.457031 12.273438 29.648438 12.273438 23.128906 0 41.945312-18.816406 41.945312-41.9375 0-11.207031-4.359375-21.742188-12.289062-29.65625zm-32.984375-127.015625-52.09375 52.097656-13.507813-33.769531h-2.101562l56.726562-56.726562zm-88.945313 88.945313-30.070312-12.03125v-42.585938h42.585938l12.03125 30.070312zm-318.070312-266.074219v-65.230469l82.34375 82.34375 11.3125-11.3125-82.34375-82.34375h65.230469l248.3125 263.832031-8.167969 8.167969h-33.375l-173.65625-173.65625-11.3125 11.3125 173.65625 173.65625v33.375l-8.167969 8.167969zm253.671875 330.472656-38.398437-10.96875 56.726562-56.734375v2.101562l33.769531 13.515626zm61.640625-39.015625 52.6875-52.6875 12.6875 12.6875-52.6875 52.6875zm40 8 20.6875-20.6875 44.6875 44.6875-20.6875 20.6875zm48 64 36.6875-36.6875 12.6875 12.6875-36.6875 36.6875zm34.742188 24c-3.144532 0-6.183594-.625-9.054688-1.695312l33.296875-33.296876c1.078125 2.863282 1.703125 5.902344 1.703125 9.054688 0 14.304688-11.640625 25.9375-25.945312 25.9375zm-134.054688-160h16v16h-16zm10.34375-130.34375-80-80 11.3125-11.3125 80 80zm-104-104 11.3125-11.3125 16 16-11.3125 11.3125zm-116.6875 164.6875 80 80-11.3125 11.3125-80-80zm-8-8-11.3125 11.3125-16-16 11.3125-11.3125zm-64 8 80 80-11.3125 11.3125-80-80zm-8-8-11.3125 11.3125-16-16 11.3125-11.3125zm312-136-11.3125 11.3125-80-80 11.3125-11.3125zm-99.3125-76.6875-16-16 11.3125-11.3125 16 16zm0 0" fill="url(#a)"/></svg>