<svg height="496pt" viewBox="0 0 496 496" width="496pt" xmlns="http://www.w3.org/2000/svg"><path d="m242.039062 192.160156 11.921876-10.671875-162.386719-181.488281h-91.574219v91.574219l185.0625 165.585937 10.671875-11.921875-179.734375-160.8125v-57.113281l174.34375 174.34375 11.3125-11.3125-174.34375-174.34375h57.113281zm0 0"/><path d="m483.3125 408h-22.625l-8.6875 8.6875-44.6875-44.6875 20-20-24-24 16-16-35.3125-35.3125-23.679688 23.679688-48.761718-54.503907-11.917969 10.671875 49.351563 55.160156-12.992188 12.992188-52.648438-52.648438-11.3125 11.3125 52.648438 52.648438-12.992188 12.992188-58.359374-52.214844-10.671876 11.917968 57.695313 51.625-23.671875 23.679688 35.3125 35.3125 16-16 24 24 20-20 44.6875 44.6875-8.6875 8.6875v22.625l12.6875 12.6875h22.625l52.6875-52.6875v-22.625zm-171.3125-11.3125-12.6875-12.6875 84.6875-84.6875 12.6875 12.6875zm40 8-12.6875-12.6875 52.6875-52.6875 12.6875 12.6875zm31.3125-8.6875 12.6875-12.6875 44.6875 44.6875-12.6875 12.6875zm96.6875 40.6875-43.3125 43.3125h-9.375l-3.3125-3.3125v-9.375l43.3125-43.3125h9.375l3.3125 3.3125zm0 0"/><path d="m404.425781 0-274.386719 306.664062 59.296876 59.296876 306.664062-274.386719v-91.574219zm0 0" fill="#f0bc5e"/><path d="m294.339844 190.34375 188-187.996094 11.3125 11.3125-187.996094 187.996094zm0 0"/><path d="m293.65625 213.65625-11.3125-11.3125-122.34375 122.34375-48-48-35.3125 35.3125 16 16-24 24 20 20-44.6875 44.6875-8.6875-8.6875h-22.625l-12.6875 12.6875v22.625l52.6875 52.6875h22.625l12.6875-12.6875v-22.625l-8.6875-8.6875 44.6875-44.6875 20 20 24-24 16 16 35.3125-35.3125-48-48zm-221.65625 263.03125-3.3125 3.3125h-9.375l-43.3125-43.3125v-9.375l3.3125-3.3125h9.375l43.3125 43.3125zm-4-36-12.6875-12.6875 44.6875-44.6875 12.6875 12.6875zm76-36-52.6875-52.6875 12.6875-12.6875 52.6875 52.6875zm40-8-84.6875-84.6875 12.6875-12.6875 84.6875 84.6875zm0 0"/><path d="m248 150.425781-41.617188-62.425781 41.617188-62.425781 41.617188 62.425781zm0 0" fill="#f0bc5e"/><path d="m206.941406 9.761719 14.78125-6.125 12.246094 29.566406-14.78125 6.125zm0 0"/><path d="m163.636719 61.710938 6.125-14.785157 29.5625 12.246094-6.121094 14.785156zm0 0"/><path d="m296.667969 59.183594 29.5625-12.25 6.125 14.78125-29.5625 12.25zm0 0"/><path d="m262.03125 33.207031 12.25-29.5625 14.78125 6.125-12.25 29.5625zm0 0"/><path d="m240 432h16v16h-16zm0 0"/><path d="m272 432h16v16h-16zm0 0"/><path d="m208 432h16v16h-16zm0 0"/></svg>