<svg height="496pt" viewBox="0 0 496 496" width="496pt" xmlns="http://www.w3.org/2000/svg" xmlns:xlink="http://www.w3.org/1999/xlink"><linearGradient id="a" gradientUnits="userSpaceOnUse" x1="248" x2="248" y1="496" y2="0"><stop offset="0" stop-color="#9f2fff"/><stop offset="1" stop-color="#0bb1d3"/></linearGradient><path d="m475.3125 432 16-16-35.3125-35.3125-16 16-160.6875-160.6875 12-12-28.738281-28.734375-15.421875-30.839844-.074219.03125c.546875-3.210937.921875-6.410156.921875-9.546875 0-32.484375-26.433594-58.910156-58.910156-58.910156-12.042969 0-23.515625 3.617188-33.234375 10.28125l-6.085938-18.28125h-61.769531v61.769531l18.28125 6.09375c-6.664062 9.710938-10.28125 21.183594-10.28125 33.226563 0 32.484375 26.433594 58.910156 58.910156 58.910156 3.144532 0 6.335938-.375 9.546875-.921875l-.042969.074219 30.84375 15.421875 28.742188 28.738281 12-12 160.6875 160.6875-16 16 35.3125 35.3125 16-16 11.71875 11.710938c5.785156 5.792968 13.464844 8.976562 21.65625 8.976562 16.882812 0 30.625-13.734375 30.625-30.632812 0-8.175782-3.183594-15.863282-8.96875-21.65625zm-70.625-48-20.6875 20.6875-112.6875-112.6875 20.6875-20.6875zm-206.261719-137.734375-22.425781-11.210937v-11.054688h24v-24h24v-24h11.054688l11.210937 22.425781zm-94.425781-142.265625h34.230469l4.617187 13.839844-25.007812 25.007812-13.839844-4.617187zm56 127.671875c-26.039062 3.320313-48-17.246094-48-42.582031 0-11.464844 4.464844-22.242188 12.566406-30.347656l34.167969-34.175782c8.105469-8.101562 18.890625-12.566406 30.355469-12.566406 23.664062 0 42.910156 19.246094 42.910156 42.910156 0 1.675782-.113281 3.371094-.328125 5.089844h-23.671875v24h-24v24h-24zm51.3125 24.328125 44.6875-44.6875 12.6875 12.6875-44.6875 44.6875zm56.6875-8.6875 12.6875 12.6875-20.6875 20.6875-12.6875-12.6875zm127.3125 168.6875 20.6875-20.6875 12.6875 12.6875-20.6875 20.6875zm8 40 52.6875-52.6875 12.6875 12.6875-52.6875 52.6875zm62.0625 24c-3.847656 0-7.613281-1.558594-10.34375-4.289062l-11.71875-11.710938 20.6875-20.6875 11.71875 11.710938c2.761719 2.769531 4.28125 6.441406 4.28125 10.34375 0 8.074218-6.558594 14.632812-14.625 14.632812zm-265.375-336h-16v-16h16zm-48 8h16v16h-16zm-24 32h16v16h-16zm-24-168h-16v-16h16zm0 56h-16v-40h16zm-70.222656-26.910156-11.3125-11.3125 11.3125-11.3125 11.3125 11.3125zm11.3125 11.308594 11.308594-11.308594 28.289062 28.285156-11.3125 11.3125zm-29.089844 47.601562h-16v-16h16zm56-16v16h-40v-16zm-38.222656 81.535156-11.3125-11.3125 11.3125-11.3125 11.3125 11.3125zm50.910156-50.910156-28.289062 28.285156-11.308594-11.308594 28.285156-28.289062zm73.535156-96.160156 11.3125 11.3125-11.3125 11.3125-11.3125-11.3125zm-39.597656 62.222656-11.3125-11.3125 28.289062-28.285156 11.308594 11.308594zm0 0" fill="url(#a)"/></svg>